<svg width="209" height="34" viewBox="0 0 209 34" fill="none" xmlns="http://www.w3.org/2000/svg">
<path fill-rule="evenodd" clip-rule="evenodd" d="M61.0976 2.93174C56.1583 3.82198 52.2647 7.21894 51.2523 11.5212C50.882 13.0947 51.0017 14.8131 51.5658 16.021C52.5886 18.2114 54.3563 19.1941 59.5982 20.4864C62.5354 21.2104 63.6001 21.6196 63.783 22.0946C63.8417 22.2477 63.8899 22.6419 63.8899 22.971C63.8899 23.7221 63.1972 24.4605 62.2455 24.7239C61.3623 24.9685 59.2677 24.9635 58.2762 24.7145C57.2295 24.4518 56.0958 23.3726 55.8316 22.3875C55.6965 21.8836 55.5463 21.6628 55.3427 21.6689C55.1811 21.6737 53.3881 21.9663 51.3581 22.3189L47.6672 22.96L47.6131 23.5117C47.4765 24.9057 48.685 27.5273 50.0633 28.8271C51.1303 29.8332 52.2411 30.4217 54.0517 30.9398C55.2139 31.2724 55.7921 31.323 58.3965 31.3207C60.9214 31.3183 61.6433 31.2573 62.921 30.9381C64.9086 30.4417 66.5005 29.7639 67.9763 28.7857C72.9105 25.5152 74.5212 19.1994 71.2724 15.8616C70.1224 14.6801 68.5971 14.0688 64.1474 13.0066C60.0931 12.0386 59.5209 11.6578 59.9887 10.24C60.3736 9.07386 62.0896 8.48523 64.1321 8.819C65.6964 9.07455 66.6244 9.84719 67.0416 11.2412C67.114 11.4835 67.6103 11.3827 70.8322 10.4709L74.5394 9.42167L74.4376 8.90818C74.2248 7.83565 73.2073 5.9898 72.3724 5.16204C71.3225 4.12083 69.5499 3.25491 67.7755 2.91634C66.1209 2.60071 62.8922 2.60807 61.0976 2.93174ZM158.909 2.76931C158.72 2.80731 158.102 2.92558 157.535 3.03222C150.295 4.3947 144.518 12.4653 144.507 21.2321C144.503 24.46 145.04 26.1655 146.698 28.1952C147.652 29.3635 149.039 30.3022 150.65 30.8701C151.719 31.2469 152.169 31.3022 154.274 31.3157C156.335 31.3287 156.861 31.2741 157.965 30.9324C159.488 30.4611 160.837 29.7485 161.944 28.8305C162.386 28.4641 162.784 28.1643 162.828 28.1643C162.913 28.1643 163.192 29.3331 163.37 30.4323L163.474 31.0742H167.516L169.092 23.3282C169.959 19.0679 170.668 15.5248 170.668 15.4546C170.668 15.3844 167.854 15.3269 164.414 15.3269H158.161L157.977 16.2255C157.876 16.7198 157.611 18.0291 157.387 19.1353L156.98 21.1465H159.275C161.919 21.1465 161.914 21.1423 161.069 22.6097C159.428 25.4634 155.065 25.6766 153.83 22.9636C152.963 21.0599 153.879 15.1588 155.534 11.9892C156.667 9.82015 158.032 8.8065 159.856 8.78117C161.82 8.75413 162.943 10.0608 162.943 12.3731V13.1228L163.673 13.0281C164.074 12.9761 165.716 12.8144 167.321 12.6689C168.926 12.5234 170.497 12.3638 170.813 12.3144L171.387 12.2243L171.264 10.9942C170.7 5.37172 167.321 2.61286 161.083 2.68047C160.076 2.69143 159.098 2.73148 158.909 2.76931ZM85.5887 4.2439C85.2464 4.92634 82.0826 11.1077 78.5582 17.98C75.0337 24.8523 72.0986 30.6098 72.0358 30.7746C71.9295 31.0536 72.1551 31.0742 75.3329 31.0742H78.7441L81.5737 25.4192L89.2111 25.5113L89.4129 27.7364C89.5239 28.9603 89.6204 30.212 89.6274 30.5179L89.6403 31.0742H98.3738L98.294 30.5179C98.1712 29.6646 95.3054 3.5031 95.3054 3.23693C95.3054 3.04489 94.4886 3.00295 90.7584 3.00295H86.2112L85.5887 4.2439ZM106.727 3.37027C106.562 4.07188 101.142 30.8441 101.142 30.9617C101.142 31.1375 112.014 31.0848 113.922 30.8999C116.096 30.6892 117.865 30.204 119.58 29.3483C125.434 26.4277 129.196 20.239 129.143 13.6152C129.109 9.4441 127.175 5.87888 124.146 4.40411C121.715 3.22067 121.024 3.13201 113.553 3.0454L106.823 2.96752L106.727 3.37027ZM135.392 3.38807C135.224 4.09858 129.811 30.8479 129.811 30.9648C129.811 31.0283 131.717 31.0596 134.047 31.0343L138.283 30.9886L141.084 17.2097C142.624 9.63135 143.885 3.33467 143.886 3.21691C143.887 3.05156 142.934 3.00295 139.685 3.00295H135.483L135.392 3.38807ZM177.793 3.38807C177.622 4.11313 172.216 30.8172 172.215 30.9487C172.214 31.0211 174.12 31.0596 176.451 31.0343L180.688 30.9886L183.487 17.2097C185.027 9.63135 186.287 3.33467 186.288 3.21691C186.29 3.05156 185.336 3.00295 182.087 3.00295H177.885L177.793 3.38807ZM188.954 3.21691C188.85 3.52706 187.663 9.31298 187.663 9.51119C187.663 9.61338 188.79 9.67842 190.562 9.67842H193.46L191.334 20.1435C190.165 25.8993 189.208 30.7147 189.208 30.8445C189.208 31.0396 189.9 31.0725 193.194 31.0345L197.18 30.9886L201.491 9.76401L207.357 9.67055L207.982 6.55071C208.326 4.83477 208.607 3.33467 208.607 3.21691C208.607 2.9035 189.059 2.9035 188.954 3.21691ZM118.34 9.8359C119.706 10.7694 120.304 12.5386 120.139 15.1557C119.946 18.2129 118.827 20.9629 117.047 22.756C115.657 24.1567 114.775 24.5519 112.746 24.6849C111.822 24.7453 111.108 24.7222 111.05 24.6301C110.996 24.5425 111.641 21.0848 112.484 16.9463C113.327 12.8077 114.016 9.39395 114.017 9.35988C114.017 9.32599 114.855 9.32685 115.878 9.36177C117.5 9.41705 117.816 9.47799 118.34 9.8359ZM88.594 14.8134C88.7066 16.4609 88.8436 18.1748 88.8983 18.6218L88.9979 19.4349H86.6582C85.3714 19.4349 84.3186 19.3943 84.3186 19.3449C84.3186 19.2954 85.0603 17.7355 85.9669 15.8787C86.8735 14.0219 87.7308 12.2368 87.8719 11.912C88.2587 11.0222 88.3634 11.4431 88.594 14.8134Z" fill="#70B44E"/>
<path fill-rule="evenodd" clip-rule="evenodd" d="M16.0627 1.74095C15.6882 2.42356 13.5114 6.48653 11.2253 10.77C8.93933 15.0534 6.76188 19.1184 6.38644 19.8034L5.70405 21.0486L6.36223 20.794C6.72428 20.6538 9.01727 19.8483 11.4579 19.0039C13.8987 18.1594 15.9158 17.4441 15.9405 17.4141C15.9654 17.3843 16.6983 16.1275 17.5693 14.6212C18.4404 13.1149 19.213 11.8197 19.2865 11.743C19.36 11.6664 22.4274 11.6967 26.1032 11.8105L32.7862 12.0172L40.1953 6.38691C44.2702 3.29035 47.6078 0.699066 47.6123 0.628374C47.6166 0.557683 40.6731 0.5 32.182 0.5H16.7438L16.0627 1.74095ZM36.805 14.9082C34.1141 15.8431 31.8235 16.7002 31.7149 16.8128C31.606 16.9254 30.8067 18.2499 29.9383 19.7562C29.0698 21.2624 28.3476 22.5053 28.3333 22.5179C28.3191 22.5306 25.2946 22.4447 21.6123 22.3269C17.93 22.209 14.8399 22.1684 14.7455 22.2367C14.6511 22.3048 11.2948 24.8557 7.28684 27.905L0 33.4495L15.4317 33.4931C23.9192 33.5172 30.9245 33.476 30.9992 33.4015C31.1966 33.2047 41.814 13.3095 41.7508 13.2548C41.7215 13.2293 39.4959 13.9735 36.805 14.9082Z" fill="#70B44E"/>
</svg>
